<svg width="311" height="131" viewBox="0 0 311 131" fill="none" xmlns="http://www.w3.org/2000/svg">
<g clip-path="url(#clip0_1_65)">
<path d="M43.2856 109.716H35.9459L43.3868 94.2778H35.9459V79.1428H51.0808V94.2778L43.2856 109.716ZM35.9459 40.3691H51.0808V55.504H35.9459V40.3691Z" fill="#A99FB2"/>
<path d="M65.5173 33.0889H67.7151L67.8809 36.8623C68.4062 35.646 69.2079 34.6646 70.286 33.9182C71.3641 33.1718 72.7464 32.7986 74.4327 32.7986C75.9808 32.7986 77.3768 33.1994 78.6208 34.0011C79.8648 34.8028 80.7909 36.0192 81.3991 37.6502C81.9796 35.9915 82.9333 34.7752 84.2603 34.0011C85.5872 33.1994 87.08 32.7986 88.7387 32.7986C90.2591 32.7986 91.6137 33.1442 92.8024 33.8353C93.9911 34.4987 94.9172 35.5078 95.5807 36.8623C96.2441 38.2169 96.5759 39.917 96.5759 41.9627V53.8222H94.2123V42.2115C94.2123 39.8618 93.7009 38.0787 92.678 36.8623C91.6552 35.6183 90.2177 34.9963 88.3655 34.9963C86.458 34.9963 84.9376 35.6736 83.8041 37.0282C82.6984 38.3828 82.1455 40.3732 82.1455 42.9994V53.8222H79.7404V42.2115C79.7404 39.8618 79.2428 38.0787 78.2476 36.8623C77.2801 35.6183 75.8702 34.9963 74.018 34.9963C72.1105 34.9963 70.6039 35.6736 69.4981 37.0282C68.42 38.3828 67.8809 40.3732 67.8809 42.9994V53.8222H65.5173V33.0889ZM116.206 53.8222L116.04 49.4267C115.459 50.9195 114.547 52.0806 113.303 52.9099C112.087 53.7116 110.539 54.1125 108.659 54.1125C107.166 54.1125 105.894 53.8913 104.844 53.449C103.793 52.979 102.978 52.3156 102.397 51.4586C101.845 50.6016 101.568 49.5788 101.568 48.3901C101.568 46.6485 102.218 45.2386 103.517 44.1605C104.816 43.0547 106.751 42.3774 109.322 42.1286L116.04 41.3822V39.6406C116.04 38.2031 115.556 37.0835 114.589 36.2818C113.649 35.4525 112.336 35.0378 110.649 35.0378C109.046 35.0378 107.705 35.411 106.627 36.1574C105.577 36.9038 104.872 37.9681 104.512 39.3503L102.356 38.6039C102.881 36.7518 103.863 35.3281 105.3 34.3329C106.738 33.31 108.534 32.7986 110.691 32.7986C113.123 32.7986 115.017 33.4068 116.372 34.6231C117.726 35.8395 118.404 37.512 118.404 39.6406V53.8222H116.206ZM116.04 43.4141L109.281 44.2019C107.512 44.3954 106.199 44.8378 105.342 45.5289C104.512 46.1923 104.098 47.1046 104.098 48.2657C104.098 49.4267 104.498 50.339 105.3 51.0025C106.129 51.6659 107.304 51.9977 108.825 51.9977C110.428 51.9977 111.755 51.6798 112.806 51.0439C113.884 50.3805 114.685 49.482 115.211 48.3486C115.763 47.1875 116.04 45.8882 116.04 44.4507V43.4141ZM124.721 23.9662H127.126V42.3774H129.241L137.907 33.0889H141.266L131.314 43.4141L141.349 53.8222H137.99L129.241 44.4507H127.126V53.8222H124.721V23.9662ZM146.245 47.7681C146.438 48.6803 146.756 49.4406 147.199 50.0487C147.669 50.6569 148.291 51.113 149.065 51.4171C149.839 51.7212 150.765 51.8733 151.843 51.8733C153.557 51.8733 154.842 51.5415 155.699 50.8781C156.584 50.187 157.026 49.33 157.026 48.3071C157.026 47.4502 156.764 46.7729 156.238 46.2753C155.741 45.7777 155.077 45.3768 154.248 45.0727C153.419 44.7686 152.52 44.506 151.553 44.2849C150.889 44.119 150.143 43.9255 149.313 43.7043C148.484 43.4832 147.682 43.1791 146.908 42.7921C146.162 42.3774 145.54 41.8522 145.042 41.2163C144.572 40.5529 144.337 39.6821 144.337 38.6039C144.337 37.4429 144.655 36.4338 145.291 35.5769C145.927 34.6922 146.798 34.015 147.904 33.545C149.037 33.0474 150.322 32.7986 151.76 32.7986C153.474 32.7986 154.994 33.1718 156.321 33.9182C157.648 34.6646 158.56 35.8533 159.058 37.4843L156.86 38.2307C156.612 37.3461 156.197 36.6826 155.616 36.2403C155.063 35.7704 154.441 35.4525 153.75 35.2866C153.059 35.1207 152.382 35.0378 151.718 35.0378C150.253 35.0378 149.078 35.3419 148.194 35.9501C147.309 36.5306 146.867 37.3738 146.867 38.4795C146.867 39.1154 147.019 39.6406 147.323 40.0553C147.627 40.4699 148.028 40.8017 148.526 41.0505C149.051 41.2993 149.645 41.5066 150.309 41.6725C150.972 41.8383 151.663 42.0042 152.382 42.1701C153.184 42.3636 153.999 42.5986 154.828 42.875C155.658 43.1514 156.432 43.5108 157.151 43.9531C157.869 44.3954 158.45 44.9622 158.892 45.6533C159.334 46.3444 159.556 47.2152 159.556 48.2657C159.556 49.4544 159.224 50.491 158.56 51.3757C157.925 52.2603 157.026 52.9376 155.865 53.4075C154.732 53.8775 153.391 54.1125 151.843 54.1125C149.742 54.1125 148.014 53.6563 146.66 52.7441C145.333 51.8042 144.448 50.3943 144.006 48.5145L146.245 47.7681ZM178.951 33.0889H181.397L169.745 62.1155H167.423L170.865 53.6149L162.323 33.0889H164.894L172.109 50.8366L178.951 33.0889ZM185.544 33.0889H187.742L187.908 36.8623C188.433 35.646 189.234 34.6646 190.313 33.9182C191.391 33.1718 192.773 32.7986 194.459 32.7986C196.007 32.7986 197.403 33.1994 198.647 34.0011C199.891 34.8028 200.817 36.0192 201.426 37.6502C202.006 35.9915 202.96 34.7752 204.287 34.0011C205.614 33.1994 207.107 32.7986 208.765 32.7986C210.286 32.7986 211.64 33.1442 212.829 33.8353C214.018 34.4987 214.944 35.5078 215.607 36.8623C216.271 38.2169 216.602 39.917 216.602 41.9627V53.8222H214.239V42.2115C214.239 39.8618 213.727 38.0787 212.705 36.8623C211.682 35.6183 210.244 34.9963 208.392 34.9963C206.485 34.9963 204.964 35.6736 203.831 37.0282C202.725 38.3828 202.172 40.3732 202.172 42.9994V53.8222H199.767V42.2115C199.767 39.8618 199.269 38.0787 198.274 36.8623C197.307 35.6183 195.897 34.9963 194.045 34.9963C192.137 34.9963 190.63 35.6736 189.525 37.0282C188.447 38.3828 187.908 40.3732 187.908 42.9994V53.8222H185.544V33.0889Z" fill="#232323"/>
<mask id="path-3-outside-1_1_65" maskUnits="userSpaceOnUse" x="28.1889" y="33.8222" width="22" height="75" fill="#232323">
<rect fill="white" x="28.1889" y="33.8222" width="22" height="75"/>
<path d="M39.83 106.261H32.4903L39.9313 90.8222H32.4903V75.6873H47.6253V90.8222L39.83 106.261ZM32.4903 36.9135H47.6253V52.0484H32.4903V36.9135Z"/>
</mask>
<path d="M39.83 106.261V108.68H41.3184L41.9893 107.351L39.83 106.261ZM32.4903 106.261L30.3113 105.211L28.6393 108.68H32.4903V106.261ZM39.9313 90.8222L42.1103 91.8724L43.7823 88.4033H39.9313V90.8222ZM32.4903 90.8222H30.0714V93.2411H32.4903V90.8222ZM32.4903 75.6873V73.2684H30.0714V75.6873H32.4903ZM47.6253 75.6873H50.0442V73.2684H47.6253V75.6873ZM47.6253 90.8222L49.7845 91.9125L50.0442 91.3982V90.8222H47.6253ZM32.4903 36.9135V34.4946H30.0714V36.9135H32.4903ZM47.6253 36.9135H50.0442V34.4946H47.6253V36.9135ZM47.6253 52.0484V54.4673H50.0442V52.0484H47.6253ZM32.4903 52.0484H30.0714V54.4673H32.4903V52.0484ZM39.83 103.842H32.4903V108.68H39.83V103.842ZM34.6693 107.311L42.1103 91.8724L37.7522 89.772L30.3113 105.211L34.6693 107.311ZM39.9313 88.4033H32.4903V93.2411H39.9313V88.4033ZM34.9092 90.8222V75.6873H30.0714V90.8222H34.9092ZM32.4903 78.1062H47.6253V73.2684H32.4903V78.1062ZM45.2064 75.6873V90.8222H50.0442V75.6873H45.2064ZM45.466 89.732L37.6708 105.171L41.9893 107.351L49.7845 91.9125L45.466 89.732ZM32.4903 39.3324H47.6253V34.4946H32.4903V39.3324ZM45.2064 36.9135V52.0484H50.0442V36.9135H45.2064ZM47.6253 49.6296H32.4903V54.4673H47.6253V49.6296ZM34.9092 52.0484V36.9135H30.0714V52.0484H34.9092Z" fill="#232323" mask="url(#path-3-outside-1_1_65)"/>
<path d="M73.8936 102.49C71.8756 102.49 70.1063 102.048 68.5859 101.163C67.0654 100.279 65.8767 99.0485 65.0197 97.4728C64.1628 95.8694 63.7343 94.0173 63.7343 91.9163C63.7343 89.7877 64.1628 87.9217 65.0197 86.3183C65.8767 84.7149 67.0793 83.4571 68.6273 82.5448C70.1754 81.6325 71.9585 81.1764 73.9765 81.1764C76.1605 81.1764 78.0956 81.7155 79.7819 82.7936C81.4958 83.8717 82.6984 85.3231 83.3895 87.1476L78.4549 88.5575C78.1232 87.7558 77.5703 87.12 76.7963 86.65C76.0499 86.1801 75.1929 85.9451 74.2253 85.9451C73.2578 85.9451 72.4008 86.1939 71.6544 86.6915C70.9357 87.1891 70.3689 87.8802 69.9543 88.7648C69.5673 89.6494 69.3737 90.6861 69.3737 91.8748C69.3737 93.6717 69.8161 95.0954 70.7007 96.1459C71.5853 97.1964 72.774 97.7216 74.2668 97.7216C75.2067 97.7216 76.0637 97.5005 76.8377 97.0581C77.6118 96.5882 78.1923 95.9524 78.5793 95.1507L83.4724 96.5605C82.726 98.3574 81.482 99.7949 79.7404 100.873C78.0265 101.951 76.0775 102.49 73.8936 102.49ZM87.529 72.344H92.8368V83.4985C93.4726 82.8074 94.2604 82.2545 95.2004 81.8399C96.1679 81.3976 97.246 81.1764 98.4348 81.1764C100.01 81.1764 101.379 81.522 102.54 82.2131C103.729 82.9042 104.641 83.9132 105.277 85.2401C105.913 86.5394 106.23 88.1566 106.23 90.0917V102.2H100.632V90.7967C100.632 89.1933 100.315 87.9908 99.6788 87.1891C99.0429 86.3874 98.0892 85.9865 96.8176 85.9865C95.5183 85.9865 94.5231 86.4289 93.832 87.3135C93.1685 88.1705 92.8368 89.4006 92.8368 91.004V102.2H87.529V72.344ZM111.761 81.4667H117.069V102.2H111.761V81.4667ZM114.457 78.8128C113.462 78.8128 112.646 78.5087 112.01 77.9005C111.374 77.2647 111.056 76.4907 111.056 75.5784C111.056 74.6661 111.374 73.9059 112.01 73.2977C112.646 72.6619 113.462 72.344 114.457 72.344C115.397 72.344 116.185 72.6619 116.82 73.2977C117.484 73.9059 117.816 74.6661 117.816 75.5784C117.816 76.4907 117.484 77.2647 116.82 77.9005C116.185 78.5087 115.397 78.8128 114.457 78.8128ZM135.072 102.2L134.658 99.6705C133.966 100.528 133.179 101.205 132.294 101.702C131.437 102.2 130.276 102.449 128.811 102.449C127.428 102.449 126.212 102.214 125.162 101.744C124.139 101.246 123.337 100.569 122.757 99.712C122.176 98.8274 121.886 97.7907 121.886 96.602C121.886 94.8604 122.508 93.4229 123.752 92.2895C125.023 91.1284 126.931 90.3958 129.474 90.0917L134.658 89.5112V88.0599C134.658 87.4793 134.395 86.9403 133.87 86.4427C133.344 85.9451 132.515 85.6963 131.382 85.6963C130.386 85.6963 129.516 85.9451 128.769 86.4427C128.05 86.9126 127.567 87.6314 127.318 88.5989L122.757 86.9403C123.309 85.0881 124.36 83.6644 125.908 82.6692C127.456 81.674 129.364 81.1764 131.63 81.1764C134.395 81.1764 136.468 81.8675 137.85 83.2497C139.26 84.6043 139.965 86.4012 139.965 88.6404V102.2H135.072ZM134.658 93.2017L130.179 93.7823C129.267 93.8929 128.576 94.1693 128.106 94.6116C127.636 95.0263 127.401 95.5377 127.401 96.1459C127.401 96.7264 127.636 97.224 128.106 97.6387C128.576 98.0257 129.239 98.2192 130.096 98.2192C131.064 98.2192 131.879 98.0395 132.543 97.6801C133.234 97.3208 133.759 96.7955 134.118 96.1044C134.478 95.4133 134.658 94.5563 134.658 93.5335V93.2017ZM153.952 102.49C151.934 102.49 150.165 102.048 148.644 101.163C147.124 100.279 145.935 99.0485 145.078 97.4728C144.221 95.8694 143.792 94.0173 143.792 91.9163C143.792 89.7877 144.221 87.9217 145.078 86.3183C145.935 84.7149 147.137 83.4571 148.686 82.5448C150.234 81.6325 152.017 81.1764 154.035 81.1764C156.219 81.1764 158.154 81.7155 159.84 82.7936C161.554 83.8717 162.757 85.3231 163.448 87.1476L158.513 88.5575C158.181 87.7558 157.629 87.12 156.854 86.65C156.108 86.1801 155.251 85.9451 154.284 85.9451C153.316 85.9451 152.459 86.1939 151.713 86.6915C150.994 87.1891 150.427 87.8802 150.012 88.7648C149.625 89.6494 149.432 90.6861 149.432 91.8748C149.432 93.6717 149.874 95.0954 150.759 96.1459C151.644 97.1964 152.832 97.7216 154.325 97.7216C155.265 97.7216 156.122 97.5005 156.896 97.0581C157.67 96.5882 158.251 95.9524 158.638 95.1507L163.531 96.5605C162.784 98.3574 161.54 99.7949 159.799 100.873C158.085 101.951 156.136 102.49 153.952 102.49ZM167.587 72.344H172.895V83.4985C173.531 82.8074 174.319 82.2545 175.259 81.8399C176.226 81.3976 177.304 81.1764 178.493 81.1764C180.069 81.1764 181.437 81.522 182.598 82.2131C183.787 82.9042 184.699 83.9132 185.335 85.2401C185.971 86.5394 186.289 88.1566 186.289 90.0917V102.2H180.691V90.7967C180.691 89.1933 180.373 87.9908 179.737 87.1891C179.101 86.3874 178.147 85.9865 176.876 85.9865C175.576 85.9865 174.581 86.4289 173.89 87.3135C173.227 88.1705 172.895 89.4006 172.895 91.004V102.2H167.587V72.344ZM203.306 102.2L202.891 99.6705C202.2 100.528 201.412 101.205 200.528 101.702C199.671 102.2 198.51 102.449 197.044 102.449C195.662 102.449 194.446 102.214 193.395 101.744C192.373 101.246 191.571 100.569 190.99 99.712C190.41 98.8274 190.119 97.7907 190.119 96.602C190.119 94.8604 190.741 93.4229 191.985 92.2895C193.257 91.1284 195.165 90.3958 197.708 90.0917L202.891 89.5112V88.0599C202.891 87.4793 202.629 86.9403 202.103 86.4427C201.578 85.9451 200.749 85.6963 199.615 85.6963C198.62 85.6963 197.749 85.9451 197.003 86.4427C196.284 86.9126 195.8 87.6314 195.552 88.5989L190.99 86.9403C191.543 85.0881 192.594 83.6644 194.142 82.6692C195.69 81.674 197.597 81.1764 199.864 81.1764C202.629 81.1764 204.702 81.8675 206.084 83.2497C207.494 84.6043 208.199 86.4012 208.199 88.6404V102.2H203.306ZM202.891 93.2017L198.413 93.7823C197.501 93.8929 196.809 94.1693 196.339 94.6116C195.87 95.0263 195.635 95.5377 195.635 96.1459C195.635 96.7264 195.87 97.224 196.339 97.6387C196.809 98.0257 197.473 98.2192 198.33 98.2192C199.297 98.2192 200.113 98.0395 200.776 97.6801C201.468 97.3208 201.993 96.7955 202.352 96.1044C202.712 95.4133 202.891 94.5563 202.891 93.5335V93.2017ZM213.063 72.344H218.412V89.5527H219.739L226.581 81.4667H233.547L224.383 91.7504L233.589 102.2H226.622L219.698 93.9896H218.412V102.2H213.063V72.344ZM246.044 102.49C244.026 102.49 242.229 102.062 240.653 101.205C239.077 100.32 237.833 99.09 236.921 97.5143C236.036 95.9109 235.594 94.0311 235.594 91.8748C235.594 89.6909 236.05 87.7973 236.963 86.1939C237.902 84.5905 239.174 83.3603 240.778 82.5033C242.381 81.6187 244.178 81.1764 246.168 81.1764C248.159 81.1764 249.955 81.6187 251.559 82.5033C253.162 83.3603 254.434 84.5905 255.374 86.1939C256.314 87.7696 256.784 89.6356 256.784 91.7919C256.784 93.9758 256.3 95.8694 255.332 97.4728C254.392 99.0762 253.107 100.32 251.476 101.205C249.873 102.062 248.062 102.49 246.044 102.49ZM246.002 97.7216C246.859 97.7216 247.675 97.5143 248.449 97.0996C249.223 96.6573 249.859 96.0077 250.356 95.1507C250.854 94.2661 251.103 93.1465 251.103 91.7919C251.103 90.4926 250.868 89.4145 250.398 88.5575C249.928 87.6729 249.306 87.0232 248.532 86.6085C247.785 86.1662 246.97 85.9451 246.085 85.9451C245.228 85.9451 244.427 86.1662 243.68 86.6085C242.961 87.0232 242.381 87.6729 241.939 88.5575C241.524 89.4145 241.317 90.5202 241.317 91.8748C241.317 93.1741 241.524 94.2661 241.939 95.1507C242.353 96.0077 242.92 96.6573 243.639 97.0996C244.357 97.5143 245.145 97.7216 246.002 97.7216ZM264.869 81.4667L269.804 96.2288L274.78 81.4667H280.46L272.748 102.2H266.818L259.147 81.4667H264.869Z" fill="#494150"/>
</g>
<defs>
<clipPath id="clip0_1_65">
<rect width="311" height="131" fill="white"/>
</clipPath>
</defs>
</svg>
